<?xml version="1.0" encoding="utf-8"?>
<!-- Generator: Adobe Illustrator 23.0.1, SVG Export Plug-In . SVG Version: 6.00 Build 0)  -->
<svg version="1.1" id="Layer_1" xmlns="http://www.w3.org/2000/svg" xmlns:xlink="http://www.w3.org/1999/xlink" x="0px" y="0px"
	 viewBox="0 0 1779.8 427" style="enable-background:new 0 0 1779.8 427;" xml:space="preserve">
<style type="text/css">
	@import url('https://fonts.googleapis.com/css?family=Asap|Roboto');
	.st0{fill:#9B7971;}
	.st1{fill:#582012;}
	.st2{fill:#FFFFFF;}
	.st3{font-family:'Asap-Bold',Asap,Sans-Serif;}
	.st4{font-size:43.3327px;}
	.st5{fill:#DFDFDF;}
	.st6{fill:#737373;}
	.st7{clip-path:url(#SVGID_2_);}
	.st8{fill:none;stroke:#231F20;stroke-width:2;stroke-linecap:round;stroke-linejoin:round;stroke-dasharray:0,4;}
	.st9{fill:none;stroke:#231F20;stroke-width:2;stroke-linecap:round;stroke-linejoin:round;}
	.st10{clip-path:url(#SVGID_4_);}
</style>
<title>Infographics-Crime</title>
<g>
	<path class="st0" d="M181.5,213.5l180.8-15.8c8.7,99.8-65.1,187.8-165,196.6S9.4,329.1,0.7,229.3s65.1-187.8,165-196.6l0,0
		c4.8-0.4,11-0.7,15.8-0.7V213.5z"/>
	<path class="st1" d="M181.5,213.5V32c95.4,0,172.4,70.6,180.8,165.6L181.5,213.5z"/>
	<circle class="st2" cx="181.5" cy="213.5" r="91.3"/>
	<text transform="matrix(1 0 0 1 131.9193 231.9961)" class="st1 st3 st4">23.8%</text>
</g>
<g>
	<path class="st5" d="M890.6,212.5l146.8,106.6c-57.8,81.9-171,101.5-252.9,43.7s-101.5-171-43.7-252.9c1-1.4,2-2.8,3-4.1
		C779.2,57.2,830.5,31,890.7,31L890.6,212.5z"/>
	<path class="st6" d="M890.6,212.5V31c100.2,0,181.5,81.2,181.5,181.5c0,40.1-11.1,74.3-34.7,106.6L890.6,212.5z"/>
	<circle class="st2" cx="890.6" cy="212.5" r="91.3"/>
	<text transform="matrix(1 0 0 1 841.0986 230.9648)" class="st3 st4">35.5%</text>
</g>
<g>
	<path class="st5" d="M1598.2,213.5l178.2-34.6c19.1,98.4-45.1,193.6-143.5,212.7c-98.4,19.1-193.6-45.1-212.7-143.5
		s45.1-193.6,143.5-212.7l0,0c11.4-2.3,23-3.4,34.6-3.3L1598.2,213.5z"/>
	<path class="st1" d="M1598.2,213.5V32c88.2,0,161.3,60.3,178.1,146.8L1598.2,213.5z"/>
	<circle class="st2" cx="1598.2" cy="213.5" r="91.3"/>
	<text transform="matrix(1 0 0 1 1556.6661 232)" class="st1 st3 st4">22%</text>
</g>
<g>
	<g>
		<defs>
			<rect id="SVGID_1_" x="589.5" y="8.9" width="2" height="397"/>
		</defs>
		<clipPath id="SVGID_2_">
			<use xlink:href="#SVGID_1_"  style="overflow:visible;"/>
		</clipPath>
		<g class="st7">
			<line class="st8" x1="590.5" y1="13.9" x2="590.5" y2="402.9"/>
			<path class="st9" d="M590.5,404.9L590.5,404.9 M590.5,9.9L590.5,9.9"/>
		</g>
	</g>
</g>
<g>
	<g>
		<defs>
			<rect id="SVGID_3_" x="1230.5" y="8.9" width="2" height="397"/>
		</defs>
		<clipPath id="SVGID_4_">
			<use xlink:href="#SVGID_3_"  style="overflow:visible;"/>
		</clipPath>
		<g class="st10">
			<line class="st8" x1="1231.5" y1="13.9" x2="1231.5" y2="402.9"/>
			<path class="st9" d="M1231.5,404.9L1231.5,404.9 M1231.5,9.9L1231.5,9.9"/>
		</g>
	</g>
</g>
</svg>
