<svg id="Layer_1" data-name="Layer 1" xmlns="http://www.w3.org/2000/svg" viewBox="0 0 192.76 192.76"><defs><style>.cls-1{fill:none;fill-rule:evenodd;}.cls-2{fill:#377dbd;}</style></defs><title>United_Nations</title><polygon class="cls-1" points="0 0 192.76 0 192.76 192.76 0 192.76 0 0 0 0"/><path class="cls-2" d="M669.74,410.17c-5.35,1.44-11.07,1.9-16.27,3.67,8.8-7.55,8.3-19.25,14.18-28.14a92.24,92.24,0,0,1,5.61-7.56c-3.58,7.18-2,16.49-6.13,23.45a30.48,30.48,0,0,1-6.35,7.62c.82,0,1.53-.74,2.25-1.21,6.67-6.66,15.4-8.52,22.61-13.93a21.88,21.88,0,0,0,6.81-8.59c-1.37,11-12.35,21.4-22.71,24.69Z" transform="translate(-514 -267)"/><path class="cls-2" d="M693.79,365.44c-3.27,4.65-7.22,9-10.24,13.69.34-3.73.78-8.33-.67-11.88-2.53-7.62-4.74-15.36-5.46-23.73l.1-3.2c1.9,8.54,10.29,14.42,9.77,24,.19,2.32-.53,4.29-1,6.34l.15.15.38-.43c1.24-4.7,1.87-9.64,3.81-14,2.75-6.31,6.18-12.69,4.78-20.31,4.19,9,2.92,21-1.65,29.39Z" transform="translate(-514 -267)"/><path class="cls-2" d="M688.63,317c5.51,7.46,6.71,19.35,2.7,27.91a49,49,0,0,0-3.14,11.5c-.27-.69-.34-1.62-.59-2.39-2.19-8.38-10.12-14.35-13.37-22.25a40.53,40.53,0,0,1-2.4-8.06c3.48,6.45,12.06,9.77,14.4,16.86,1,1.8.91,4,1.5,6a.24.24,0,0,0,.25-.22,81.54,81.54,0,0,1,.27-22.18c-.06-3.91-.44-7.7-2.61-10.73,1.39.82,2,2.37,3,3.59Z" transform="translate(-514 -267)"/><path class="cls-2" d="M684.75,315.58c1.44,6.54-.67,12.91.66,19.51l0,.06c-3.55-7-11.11-10.3-16.3-15.9-3-3.32-4.32-7.37-5.08-11.65,3,7.17,11,8.76,15.63,14.8,1.54,1.4,2,3.33,3,4.91l.16-.16c-2.65-5.66-3.54-12-5.39-18.07a14,14,0,0,0-5.23-6.84c6,1.24,11.3,7.56,12.56,13.34Z" transform="translate(-514 -267)"/><path class="cls-2" d="M668.56,300.59c4.56,4.08,6.62,9.36,8,14.84l.75,1.74a65.4,65.4,0,0,1-16.85-17.92L655.25,294c4.54,1.92,9.43,3.07,13.31,6.56Z" transform="translate(-514 -267)"/><path class="cls-2" d="M564,294.9c-4.57,4-7.75,9.08-11.14,13.81-3,3.76-6.93,6.25-10.38,9.49,1.86-3.86,1.93-8.47,4.57-12,3.75-6.55,10.72-8.86,16.95-11.28Z" transform="translate(-514 -267)"/><path class="cls-2" d="M539,308.86a15.55,15.55,0,0,1,8.22-5.5c-6.16,4.24-5.76,11.82-7.71,18.13-.63,2.33-1.71,4.48-2.25,6.88l.16.12a21.06,21.06,0,0,1,5.08-7.46c4.38-4,10.85-6.56,13-12.54-.09,8.31-7,14.84-13.65,19.5a28,28,0,0,0-6.88,8.22c-.15-2.09.31-4.2.16-6.44-.72-7.25-1.25-15.53,3.88-20.91Z" transform="translate(-514 -267)"/><path class="cls-2" d="M526.55,333.66c-.18-7.35,2.86-13.35,7.16-18.82.13-.07.22-.19.38-.16-4.73,7.19-.82,16.24-1,24.42l-.62,8.37c.09.06.09.31.31.21.28-.93.34-1.93.53-2.89,1.12-6.75,7-11.53,12.1-16.2A13.27,13.27,0,0,0,548,324.7a35,35,0,0,1-2.86,9.86c-4,7.77-11.35,14.15-12.7,23.05-.65-8.53-6.46-14.91-5.88-23.95Z" transform="translate(-514 -267)"/><path class="cls-2" d="M523,344.11a33.07,33.07,0,0,1,1.94-6.79c-1.9,9.72,4.64,16.72,6.78,25.14.9,3.15,1.12,6.53,2.4,9.49.12.06.22-.07.3-.16-3.2-9,1.41-17.26,6-24.26a23.19,23.19,0,0,0,2.33-6.19c.5,4-.53,8.71-1.12,12.91-1.12,5.35-2.8,10.42-4.26,15.61-1,3.24-.71,6.9-.22,10.3l-.46-.38c-3.4-6.25-10.11-11.13-12.11-18-1.64-5.45-2.74-11.76-1.62-17.7Z" transform="translate(-514 -267)"/><path class="cls-2" d="M522.66,363.08c.75,10.3,11.83,15.74,17,24.26a28,28,0,0,0,3.89,5.14c-.25-1.1-1.28-2-1.65-3.14a22.27,22.27,0,0,1-2-12.17c.5-5.26,2.7-10.14,1.86-15.67,4.51,9.73,3.14,21.87,5.66,32.4.66,2.31,2,4.36,2.87,6.57-9.27-6.32-21.9-12.32-26-23.89-1.74-4-1.93-8.92-1.56-13.5Z" transform="translate(-514 -267)"/><path class="cls-2" d="M528.2,386.73c5.17,11.69,18.11,12.65,26.78,19.77a21.47,21.47,0,0,0,5.08,3.46l.09-.09a29.84,29.84,0,0,1-5.69-6.19c-5.08-7.06-3.3-16.95-7.1-24.55a57.19,57.19,0,0,1,8.69,13.13c3.1,7.65,4.29,16.31,11.47,22.09-7.77-2.56-16.88-1.84-23.74-6.63-7.49-4.6-14.18-12.41-15.58-21Z" transform="translate(-514 -267)"/><path class="cls-2" d="M541.48,408.53c8.28,9.42,21.82,6.28,32.85,8.75,1.56.21,3,.83,4.64.58-1.31-.84-3.14-.74-4.57-1.5-8.66-3-9.93-12.4-14.62-18.72,6,4,11,9.36,16.58,14.56,4,3.49,8.76,5.1,13.81,6.12-1.21.44-2.8.32-4.1.66-9.07,2.23-19.14,5.88-28.75,2.62-6.25-2-12.7-6.91-15.84-13.07Z" transform="translate(-514 -267)"/><path class="cls-2" d="M653.92,430.49c-9.34,3.49-19.08-.16-26.37-5.69-2.95-1.87-5.56-4.57-9.38-4.33a13.55,13.55,0,0,0-3.89.37A72.07,72.07,0,0,1,634,434.5a29.14,29.14,0,0,1-3.57,3.24C624.6,431.49,618.17,425.48,611,422a12.27,12.27,0,0,0-4,1.71A59.85,59.85,0,0,0,591,438l-3.74-3.08A68,68,0,0,1,607,420.79c-7.09-2.25-11.72,3.69-17.11,6.72-6.28,4.38-15.3,6.44-22.89,3.41a24.84,24.84,0,0,1-11-7.52c6,4.11,14.86,4.54,21.65,1.87,9.1-3.95,18.57-9,29.55-6.57,1.71,0,3.38,1.74,5,.28a35.07,35.07,0,0,1,24.42,3.08l7.24,2.89c6.74,2.5,15.44,1.81,21.21-2.29a25.48,25.48,0,0,1-11.2,7.83Z" transform="translate(-514 -267)"/><path class="cls-2" d="M663.92,420.84c-10.48,4-21-.89-31.07-2.52l-1.93-.24V418c4.8-1.09,9.46-2.52,13.28-6,5.63-5.41,10.65-11,16.89-15.25-4.63,5.95-5.12,14.4-12.78,18.23-1.9,1.24-4.28,1.46-6.24,2.39,2.79.07,5.34-.93,8.1-1.21,10.27-1.61,22,0,29.22-8.71-2.67,6.1-9.37,11.2-15.47,13.34Z" transform="translate(-514 -267)"/><path class="cls-2" d="M683,391.36c-4.13,2.71-8.33,5.22-12.31,8.3v-.38c6.09-10.13,3.11-24,6.87-35.18l1.4-3.73c-.78,6.94,2.23,12.82,2,19.79a22.14,22.14,0,0,1-3.8,11.29h.38c3-3.91,5.32-8.08,8.8-11.82,5.42-5.22,10.92-10.57,11.64-17.82,1.83,12.1-5,22.7-15,29.55Z" transform="translate(-514 -267)"/><path class="cls-2" d="M666.39,324.32a62.61,62.61,0,0,0-56.07-35.53,66,66,0,0,0-28.3,6.73c-15.34,7.31-27.87,23.2-32,39-6.87,26.5,2.42,53.34,25.16,68.92,16.36,11.74,42.44,14,60.8,5,16.28-6.85,30.29-23.68,34.56-40.32,4.19-14.09,2.35-31.27-4.11-43.74Zm2.92,22c.16,1.06-.1,2.34.49,3.21l-9,.15a1.23,1.23,0,0,1-.74.28l.25-.37a49.55,49.55,0,0,0-4.72-19.32c-.1-2.68-2.69-4.48-3.8-6.8-2-1.38-2.59-3.81-4.86-5-.43-.46-.62-1.24-1.27-1.39l1-.22a69.34,69.34,0,0,0,6.19-6.66c9.29,10.45,15.19,22.3,16.37,36.14ZM644,379.94c-.78-.74-.81-2.21-2.18-2.17-.46-.07-.66.37-.66.74s.06.47-.09.62l-2.83-2.48c1.34-.69,2.33-2.49,3.36-3.8A41.25,41.25,0,0,0,647,361a1.19,1.19,0,0,0,1.42.09,1.12,1.12,0,0,0,.23-1.43l-1-1.12c.13-1.86.64-3.7.44-5.6l.69.22c2.89,0,5.84.15,8.64-.12l-.44.49c-.7,11.23-4.62,21.37-12.46,29.65.34-1.09-.7-2-.53-3.21Zm-7.32,9c-1.62-1.49,1-2.74,1.5-4.12-.28-1.45-1.9-2.26-3.14-2.67-.59-.33-.39-1.08-.44-1.57a5.1,5.1,0,0,0,1.4-1.78l.22.59L640,383.3a2,2,0,0,0,1,2.09c.43.18.91-.19,1.28-.07h-.21a44.81,44.81,0,0,1-5.54,4.64l-.44.59c-.21-.62,1.05-.91.52-1.65Zm-17.38-48.21c-.5.19-1,.53-1.58.28a3.85,3.85,0,0,0-2.09-1.41c-.59.16-1,.91-1.71.51,1.12-1.22,3.11-1.44,4-3.12a6.6,6.6,0,0,0,.38-2.48c-.32-.38-.78-.72-1.2-.38-.61,1-2,1.24-2.7,2.34l-2.24-.76c-.38-2,.15-4.66-.44-6.43a32.14,32.14,0,0,0,3.74.75,31.73,31.73,0,0,1,8.87,4,6.44,6.44,0,0,0-1.87,1.49c0,.56.59.41.84.74l.59-.21c-1,2.43-4.2,2.05-4.54,4.64Zm2.6,25.76c0,1.12-1.64,1.08-2.39,1.86-.42-.16-.1-.59,0-.84.75-.59,1.31-1.18,2.39-1Zm17.61-29.81c1,.22,1.65,1.44,2.69,1.66a16.4,16.4,0,0,1,1.72,4.69c-.83.94-.89,3-2.7,2.67-.43-1,.82-1.58.53-2.51.33-.26.82-.37.92-.85-.08-.93-1.26-.74-1.45-1.71-.36-.52-1-.47-1.48-.65-1.2-.56-2.3,2.39-2.62.06a.88.88,0,0,0,.32-1.18c-1-.56-1.12-2-2.25-2.56-1.52,0-2.92-.64-4.41-.3-1-.22-2.09-.87-2.83.15-.06.78-.48,1.43-.59,2.19a2.17,2.17,0,0,1-.84-.91c2.74-3.05,5.86-6.13,8.73-9.11l.16-.38a36.85,36.85,0,0,1,4.17,5.54c.25,1.18-2.05,2.42-.07,3.2Zm5.44,16.49c-.52,1.68-.46,3.61-.89,5.32a3,3,0,0,1-.29.9c-.53-1.05-1-2.46-2.17-3.08-1-.56-.38-2-1.33-2.62l-1-1c1.64.72,3.79.54,5.65.44Zm-13-26.41c-1.63,1.87-3.75,3.54-5.15,5.5l-.23-.65a27.28,27.28,0,0,0-14-5.69l-.8.15.06-8.42-.31-.69a55,55,0,0,1,10,2.11,36.83,36.83,0,0,1,11.2,6.47l.75.31-1.57.91Zm-8.52,46.07a29.38,29.38,0,0,1,7.78,1.76,2.17,2.17,0,0,0,1.71-.52c-.15-1,1.09-1.49,1-2.52.53-.86.15-2.08.89-2.83a4.35,4.35,0,0,0-.74-3.14c-.68-.44-1.29.12-2,.22-.74.56-.47,2.21-1.76,1.86a1.23,1.23,0,0,1-1.35.32c-.1-.17-.31-.19-.25-.37.93-.48,2.59-.16,2.71-1.66.69-.59,1.74-.34,2.4-1.05a10,10,0,0,1,1.33-2.09,3.39,3.39,0,0,0,.16-1c.19.43.19,1,.74,1.27.72.22,1-.37,1.35-.84,0-.25.15-.62.43-.37.77.62,1.87.08,2.77.16a9.06,9.06,0,0,1,2.45-.44,27.49,27.49,0,0,1-4.55,9.62c-.76,1-1.45,2-2.32,2.92-.27-.72-.25-1.69-.87-2.34l-.38.09c-.5,1-1.49,1.84-1.37,3-.74,1.19-2.61.19-3.73.81-1.33.41-2.05-.9-3.12-1.18-1.17-.5-2.53-.53-3.65-1.12a.53.53,0,0,1,.36-.59Zm-5.82-80.19a58,58,0,0,1,33,15.61l-1.07.43c-1.71,1.84-3.69,3.34-4.7,5.45-.11-.59-1-1-1.27-1.55-.19-1.71-1.82-3.34-3.29-4.21-1.22-.22-1.5-2.05-3-1.49-1.25-1-2.81-.27-4,.31v.16a46.43,46.43,0,0,0-19.63-6c-.36,0-.53.27-.9.21.37-.24.18-1,.15-1.42-.2-.32-.56-.69-1-.45a1.38,1.38,0,0,0-.28.75,43.65,43.65,0,0,0-.09-8.58c1.89.59,4.08.4,6.06.75Zm-2.39,12.47a50.31,50.31,0,0,1,15.1,4.32c.7,1.09,2.11,1.62,2.29,3-.71,1.89,2.52,1.87,1.06,3.8-.1.62.43,1,.65,1.43s-.09,1.33.54,1.64c1.11.25,1.58-1.24,2.7-.84a5.13,5.13,0,0,1,1.77,4.42,3,3,0,0,0,2,2.09c1.84-.56,1,1.49,2.24,2,1.43.17,2.15,2,3.73,1.87,1.41,1.05,2.18,2.6,3.43,3.79a.57.57,0,0,0,.37.62c.75.19,1.22-.34,1.86-.37A44.41,44.41,0,0,1,657,349l.29.59c-3,0-6,0-9.12.22-.09-1.78,0-3.64-1-5.07a6.17,6.17,0,0,0,.53-3.21c-.19-.46-.6-.05-.8,0-1,1-1.14,2.3-1.65,3.44a5.07,5.07,0,0,0-.48,4.41l.38.37-3.48-.07c.83-.53-.72-1.55.12-2.4l1.59-.3c.49-1.15,1.73-2,1.71-3.36a3,3,0,0,0,.81-3.05c-.75-1.71,1.27-3.45-.29-5.08a.85.85,0,0,0-.75-1.11c-.49-.16-1.06,0-1.06-.68.29-.44,1-.88.85-1.55-.38-.48-1-.07-1.44-.1-.12-.75,1.29-1.56.07-2.24-.85-.15-1.31.9-2.15.53a.93.93,0,0,1-.3-1.28l-1.88-2.3c-.18-.22-.71.12-.74-.31.13-1.83-2.11-2.86-2.24-4.69-.69-.63-.13-1.78-1-2.31-.5-.38-1.05-.8-1.73-.53a19.53,19.53,0,0,0-2.75-3.2.59.59,0,0,0-.67.28c.14.87,1.17,1.36,1.11,2.33a.33.33,0,0,0-.37.12,4.62,4.62,0,0,0,1.42,2.25c-4.87-3.77-10.63-5.73-16.73-6.72-1.18,0-2.4-.53-3.58-.13.28-2.7.1-5.79.16-8.68l-.32-.59c1.16.62,2.41.34,3.74.53ZM610,340.9l.52.28c-.65,0-1.39-.37-1.95.09-.38.29-.13.78,0,1.12,1.11.44,1.37,2.28,2.85,1.56.63.13,1.4.25,1.62,1,.9.33,1,1.92,2.25,1.58-.07.58-.25,1.61.46,2.07-.19.53-.86.76-.84,1.44a.6.6,0,0,0-.11.75c1.14.12,1.08,1.43,1.61,2.14a2,2,0,0,0,.84,2.33,8.8,8.8,0,0,1-1.06,2.9c-1.2.59-3.2-.9-3.64,1.27-.69.75-.1,2.4-1.44,2.46a9.81,9.81,0,0,1-6.87-1.87c1.27-.65,3.46.25,3.88-1.65a1.06,1.06,0,0,0,.32-1.18,6.19,6.19,0,0,0,1.12-2.08c-.46-.47-.26-.72-.15-1.27-1.29-1.31-3-.63-4.64-.59-1,.55,0,1.61-.69,2.29-1.24.16-1.27,1.37-2.15,2.09a1.61,1.61,0,0,1-.83-1.4h.16a.43.43,0,0,0,.31.53c1.17.18.8-1.16,1.17-1.75.2-.74,1.93-1.76.54-2.3-.07-.31.18-.71-.22-.9-.43.19-1.16.19-1.22.84a1.26,1.26,0,0,1-.49,1.5h-.25a.69.69,0,0,0-.44-.76c-.71,0-1.3.56-2,.38a17.59,17.59,0,0,1-3.14.44c-.12-.59.81-.41,1-1-.17-.94.46-1.5.86-2.18.26-.25.72-.16,1-.07.24.25.49.47.86.38l.31-.53c.94.56.41,3.23,2.24,2.08.29-1.15,0-2.52.53-3.57-.41-1,.66-1.4,1-2.1,1,.1.87-1,1.27-1.49,1.46-.43,3-.77,3.95-2.33-.38-.78-.13-1.89-.74-2.52.65-.21,1.73-.55,2.24,0Zm-1.43,57.71-.87-.6c-11.58-.62-21.48-5.35-30.12-12.9,1.4-.15,1.92,1.71,3.45,1.24,1.68-.19,3-1.52,4.76-1.24.87,0,2,0,2.49-.85.28-.93-.72-1.4-.9-2.15a36.06,36.06,0,0,0,20.06,7.55l.75-.32v8.21l.38,1.06ZM576,353.75l-.47-.74c.94.68,1.9.47,3,.27-1.53.5-1,2.37-1.56,3.52-.1.56.75.72.65,1.28-.75.37-.85,1.18-1.18,1.76.43-2.08-.38-4-.44-6.09Zm-9.42,10.74c-.84.09-.62,1-1,1.48.07-2.17-.9-4.29-1.19-6.5l-.67-5.72-.38-.52c2.74.4,5.76.14,8.65.22l.68-.32c-.25,1.37-.3,3.36.69,4.57-.34-.37-.84-1.46-1.65-1.43-1.59.09-1.71,2.18-3.3,2.24-1.31,1.09-1.49,2.62-1.77,4.11.56.59-.44,1.18-.09,1.87Zm6.35-14.41-.81-.31-8.53.15c.78-9.51,3.4-18.25,8.9-25.82l3.36-4.26.06-.59a61.56,61.56,0,0,0,6.56,6.56,37.58,37.58,0,0,0-9.92,23.37c.13.31,0,.68.38.9Zm35.3-36.27c-1.61-.34-3.27.21-4.91.37a37.28,37.28,0,0,0-18.67,9.46l-.22-.59c-2.08-1.93-4-4.36-6.27-5.83,2-1.17,3.75-2.91,5.68-4.25a47.83,47.83,0,0,1,24.32-8.13,62.48,62.48,0,0,0,.07,9Zm-13.94,46.94a.5.5,0,0,0,.75.38c.34-.48-.75-1.29.06-1.56.5.56.25,1.49.53,2.14a1.7,1.7,0,0,1,.29,1.22,21,21,0,0,0-2.62,3c-.56-1.39-1.81-2.51-2.37-3.94-.89-1.63-1.36-3.46-2.24-5.07.75.93,2.74-.13,2.74,1.65.12.09.32.05.46.05.25-.27.29-.31.61-.15.15.31.89.47.3.84a2.08,2.08,0,0,0,1.49,1.4ZM603.51,385l1.49.69c-5.4-1.34-11.22-3.21-15.89-7.1-.81-.46-1.33-1.52-2.31-1.58a44.92,44.92,0,0,0,6.2-6.35c.81,1.49,2.55,2.3,3.89,3.3,2.35,1.09,4.8,3.08,7.55,2.51a5.9,5.9,0,0,0-2.32,1.54c-.39.83-.26,2.08-1.38,2.45.07,1.78,1.65,3.27,2.77,4.54Zm-19.84-11-.31-1.93c-1.77-1.59-1.22-4.33-1.5-6.34-1.24-1-.25-2.61-1.11-3.73,0-1.81-2.81-2.43-1.94-4.42-.34-.5-.77-1.15-.37-1.78.56-.65,1.77.07,2.15-.89l.24-1.66c.66-.37,1.59.47,1.93-.44.63-1.55-2.29-3.45.22-4.26.84-.09,2-.27,2.33.76a7.13,7.13,0,0,1,.06,3.67c.82.3.07,1,.07,1.55-.49.21-1,.71-1.55.53-.25-.41-.69-1.12-1.29-1-.46.64.2,1.33.1,2.07-.15.44,0,.94-.31,1.28a1,1,0,0,0-.75-.22c-.53.28-.18.84,0,1.18.55.35,1,.88,1.61.91l.32-.38a26.89,26.89,0,0,1,.42-2.77l.91.47a30.92,30.92,0,0,0,4.79,10.67l1.18,1.18a81.84,81.84,0,0,0-8,8.15v.07c0-.13-.13-.63-.5-.44-.25-1.18,1.71-.85,1.34-2.18Zm4.32-36.8a6.56,6.56,0,0,0-2.08,2.18c-.75.47-1.71.44-2.34,1.28,0,.34.41.77-.05,1-.72.68-2.22-.18-2.56,1.12-.13,1.15-1.49,1.8-1.4,3.08-.75.5-.62,1.46-.53,2.24.41.5-.18,1.4.53,1.77a7.84,7.84,0,0,0-3.89.16c.59-1.4.41-3.14.75-4.63a36.8,36.8,0,0,1,8.36-17.24,76,76,0,0,0,6.88,6.41c-1.77.07-1.8,2.68-3.67,2.61Zm19.2,33.54c-.45.71-.1,1.77-.32,2.61a23.74,23.74,0,0,1-11.19-5.16c1.86-2,4.41-4,5.75-6.19.19,1,1.37,1.46,2.18,1.92,1.65.74,3.67,1.89,5.55,1.1-.16.12-.28.29-.43.39.54.53-.4,1.1.23,1.59.13.41-.41.34-.44.66.32.56-.09,1.55.8,1.74a.53.53,0,0,1-.36.81c-.63-.12-1.46-.15-1.77.53Zm-10-9.34a4.46,4.46,0,0,0,1.28-2l1.06.53c-1,.06-1.49,1-2.24,1.56l-.1-.07Zm8.69-25.32c-.19-.44.35-.9-.16-1.18-1.43.66-.9,2.24-1.87,3.27-.16.81-1.21.4-1.7.84a1.17,1.17,0,0,0-1.66-.22c-.74,0-.86-1.52-1.65-.74-.21.25-.09.8-.68.58-.12-.21-.34-.25-.49-.36,0-.48.78-.42.49-1-.56-1-1.78-.85-2.52-1.59h-.68c3.67-3.89,8.27-5.6,13.28-6.25-.07,2.24-.24,4.76.47,6.77-.78-1-1.87.26-2.83-.15ZM608.31,326c-1.62-.37-3.15.38-4.7.53a28.76,28.76,0,0,0-9.49,4.92c-.15.25-.31.46-.47.68-2.15-1.9-4.25-4.54-6.63-6.19,6-4.94,12.85-8.24,20.76-8.8l.53-.31a41.35,41.35,0,0,0,0,9.17Zm-33.69-22a60.62,60.62,0,0,1,33.47-11.85l-.26.87.09,7.46.29.75a49.39,49.39,0,0,0-31.79,13.38l-.16.43a52.37,52.37,0,0,0-6.87-6.62h-.28c1.93-1.12,3.61-3.11,5.51-4.42Zm-23.15,40.32c1.59-12.85,7.06-24.11,15.93-34l.21.84c2.12,2.08,4.24,4.29,6.26,6.19-1.74,1.18-2.77,3.17-4.16,4.75a50.57,50.57,0,0,0-9.35,26.66l.23,1.22a61.66,61.66,0,0,0-9.61,0c.37-1.9.15-3.83.49-5.69Zm7.19,36.36A63.5,63.5,0,0,1,551,353.37l8.65.08.84-.32a10,10,0,0,0-.09,1.74l-.07-.1c-.24.2.19.28.16.47a49.51,49.51,0,0,0,1.5,9.47l.44.67a12.42,12.42,0,0,1-1.41-1.92,3.94,3.94,0,0,0-2,.75c.34.89-.56.61-1,.86a1.62,1.62,0,0,0-.61-.58c-.66,0-1.35.09-1.62.74.09.46-.44.68-.63,1.06-.19,1.4-.65,3.22.38,4.38a3.6,3.6,0,0,0,1.27,2.61c.32.07.47-.18.69-.28.83.62,1.27,2.15,2.52,1.87.37-.18.25-.56.37-.84.66.66,1,2,2.18,1.86.3.32.46.87,1,.91,1.31-.35.83,1.49,1.81,2,.74.47,1.15,1.59,2.23,1.06l.38-.47c.35.25.07.88.37,1.22a4.31,4.31,0,0,0,2.61,2,18.32,18.32,0,0,0,2.9,3l-.76.32-6.18,6.4c-2.83-3.83-6.06-7.54-8.27-11.63Zm43.82,29.48c-12.5-1.7-23.45-7.11-33.15-15.51l6.41-6.44.09-.38c8.87,8.56,19.6,12.85,31.73,13.69l1-.25-.31.47v8.42l.47.76c-1.94-.59-4.21-.42-6.2-.76ZM610,374.94a3.28,3.28,0,0,1-1.81-.22c-.29,0-.19-.34-.29-.53.92,0,1.35-1.06,2.32-.9.55-.5.65-1.34,1.42-1.63-.25-.8.75-.28,1-.74.28-.25.66-.53,1.07-.31.62.9,1.89.53,2.52,1.55.32.13.4-.21.37-.43v-.38c1-.09,1.49,1.34,2.55.38a.68.68,0,0,0,0-.9c-.11-.06-.28-.13-.3-.28.71-.34,1.14,1.08,2,.59.71-.59,1.22-1.34,2.18-1.34l.22.29c.15,1.86-1.43,3-2.83,3.82-.91.37-2.55.25-2.49,1.71-1,.93-2-.56-3.27-.15-.59-.32,0-1.19-.84-1.34-1.3.56-2.86-.69-3.79.81Zm2.3,15.77c1.13.46,3-.47,3.67.8-.34.72-.91,1.41-.68,2.24.46,1.16,1.14,2.68,2.61,2.77a2.66,2.66,0,0,0,1.37.81c-2.5.41-5.18.28-7.47,1.05a63.31,63.31,0,0,0,0-7.67l-.47-.69c.44.06.65.44,1,.69Zm.09,19.9-.59.37a72.25,72.25,0,0,0,0-9.76c1.56.53,3.21-.07,4.86-.07l4.76-.84c2.35.47,4,4.3,6.65,2,.9-1.09,2.49-1,3-2.5,1.52-.55,1.9-2.11,3-3.1,1-2.93,4.33-3.36,6.35-5.38,1.47-1.31,3.39-2.4,4.27-4.11l.14.74,6.57,6.26c-11.11,10.08-24,15.77-39,16.42Zm57.12-57c-.59,14.55-6,27.12-15.52,38l-.26.46a65.63,65.63,0,0,0-6.93-6.81c1.43-1,2.52-2.64,3.67-4a50.22,50.22,0,0,0,9.86-27.62l-.31-.85.53.38,8.87-.06.45-.23-.36.76Z" transform="translate(-514 -267)"/><path class="cls-2" d="M637.86,304.76a1.23,1.23,0,0,0,.22.89c1.31.48,1.46,2.37,3.13,2,.5-.58-.3-1.17-.15-1.88a1.86,1.86,0,0,0-1.4-1.12c-.65.63-1.21-.56-1.8.16Z" transform="translate(-514 -267)"/><path class="cls-2" d="M613,299.47c1.64,2.12,4.51.93,6.56.53,1.49.62,2.93-.12,4-1.06v-.22c-1.05-1.49-3.05-1.71-4.85-1.86l-4.48,1.93c-.37-.16-1.08-.36-1.34.15-.2.16,0,.38.07.53Z" transform="translate(-514 -267)"/></svg>
